<?xml version="1.0" encoding="UTF-8"?><svg id="a" xmlns="http://www.w3.org/2000/svg" width="381.44" height="82.12" viewBox="0 0 381.44 82.12"><path d="M208.83,31.19c-3.07-1.64-6.4-2.47-9.98-2.47s-7,.82-10.03,2.47c-3.03,1.64-5.46,4.15-7.29,7.51-1.83,3.36-2.74,7.46-2.74,12.28s.9,9.03,2.69,12.39c1.79,3.36,4.18,5.87,7.18,7.51,3,1.64,6.29,2.47,9.87,2.47s6.94-.84,10.09-2.52c3.14-1.68,5.68-4.2,7.62-7.57,1.94-3.36,2.9-7.46,2.9-12.28s-.95-8.92-2.85-12.28c-1.9-3.36-4.39-5.87-7.46-7.51Z" style="fill:none;"/><path d="M275.49,31.14c-3.07-1.65-6.4-2.47-9.98-2.47s-7,.82-10.03,2.47c-3.03,1.64-5.46,4.15-7.29,7.51-1.83,3.36-2.74,7.46-2.74,12.28s.89,9.03,2.69,12.39c1.79,3.36,4.18,5.87,7.18,7.51,3,1.64,6.29,2.47,9.87,2.47s6.94-.84,10.09-2.52c3.14-1.68,5.68-4.2,7.62-7.57,1.94-3.36,2.91-7.46,2.91-12.28s-.95-8.92-2.85-12.28c-1.9-3.36-4.39-5.87-7.46-7.51Z" style="fill:none;"/><path d="M342.15,31.19c-3.07-1.64-6.4-2.47-9.98-2.47s-7,.82-10.03,2.47c-3.03,1.64-5.46,4.15-7.29,7.51-1.83,3.36-2.74,7.46-2.74,12.28s.9,9.03,2.69,12.39c1.79,3.36,4.18,5.87,7.18,7.51,3,1.64,6.29,2.47,9.87,2.47s6.94-.84,10.09-2.52c3.14-1.68,5.68-4.2,7.62-7.57,1.94-3.36,2.91-7.46,2.91-12.28s-.95-8.92-2.85-12.28c-1.9-3.36-4.39-5.87-7.46-7.51Z" style="fill:none;"/><path d="M143.13,30.64c-2.89-1.43-6.08-2.14-9.59-2.14-5.04,0-9.34,1.61-12.88,4.82-3.55,3.22-5.57,7.68-6.08,13.38h37.93c0-3.8-.84-7.07-2.52-9.81-1.68-2.74-3.97-4.82-6.85-6.25Z" style="fill:none;"/><path d="M214.42,23.85c-4.61-2.52-9.76-3.78-15.46-3.78s-10.85,1.26-15.46,3.78c-4.61,2.52-8.24,6.14-10.91,10.85-2.67,4.71-4,10.14-4,16.28s1.3,11.68,3.89,16.39c2.59,4.72,6.18,8.35,10.74,10.91,4.57,2.56,9.66,3.84,15.29,3.84s10.89-1.28,15.57-3.84c4.68-2.56,8.39-6.19,11.13-10.91,2.74-4.71,4.11-10.18,4.11-16.39s-1.33-11.66-4-16.34c-2.67-4.68-6.3-8.28-10.91-10.8ZM216.23,63.26c-1.94,3.36-4.48,5.89-7.62,7.57-3.14,1.68-6.51,2.52-10.09,2.52s-6.87-.82-9.87-2.47c-3-1.64-5.39-4.15-7.18-7.51-1.79-3.36-2.69-7.49-2.69-12.39s.91-8.92,2.74-12.28c1.83-3.36,4.26-5.87,7.29-7.51,3.03-1.64,6.38-2.47,10.03-2.47s6.91.82,9.98,2.47c3.07,1.64,5.55,4.15,7.46,7.51,1.9,3.36,2.85,7.46,2.85,12.28s-.97,8.92-2.9,12.28Z" style="fill:#ff512c;"/><path d="M347.74,23.85c-4.61-2.52-9.76-3.78-15.46-3.78s-10.85,1.26-15.46,3.78c-4.61,2.52-8.24,6.14-10.91,10.85-2.67,4.71-4,10.14-4,16.28s1.3,11.68,3.89,16.39c2.59,4.72,6.18,8.35,10.74,10.91,4.57,2.56,9.66,3.84,15.29,3.84s10.89-1.28,15.57-3.84c4.68-2.56,8.39-6.19,11.13-10.91,2.74-4.71,4.11-10.18,4.11-16.39s-1.33-11.66-4-16.34c-2.67-4.68-6.3-8.28-10.91-10.8ZM349.55,63.26c-1.94,3.36-4.48,5.89-7.62,7.57-3.14,1.68-6.51,2.52-10.09,2.52s-6.87-.82-9.87-2.47c-3-1.64-5.39-4.15-7.18-7.51-1.79-3.36-2.69-7.49-2.69-12.39s.91-8.92,2.74-12.28c1.83-3.36,4.26-5.87,7.29-7.51,3.03-1.64,6.38-2.47,10.03-2.47s6.91.82,9.98,2.47c3.07,1.64,5.55,4.15,7.46,7.51,1.9,3.36,2.85,7.46,2.85,12.28s-.97,8.92-2.91,12.28Z" style="fill:#ff512c;"/><path d="M285.91,27.13c-1.47-1.27-3.08-2.38-4.82-3.34-4.61-2.52-9.76-3.78-15.46-3.78s-10.85,1.26-15.46,3.78c-4.61,2.52-8.24,6.14-10.91,10.85-2.67,4.71-4,10.14-4,16.28s1.3,11.68,3.89,16.39c2.59,4.71,6.18,8.35,10.74,10.91,4.57,2.56,9.67,3.84,15.29,3.84s10.89-1.28,15.57-3.84c4.68-2.56,8.39-6.19,11.13-10.91,2.74-4.71,4.11-10.18,4.11-16.39,0-.21-.01-.41-.02-.62l.02-.02V0h-10.09v27.13ZM282.89,63.21c-1.94,3.36-4.48,5.89-7.62,7.57-3.14,1.68-6.51,2.52-10.09,2.52s-6.87-.82-9.87-2.47c-3-1.64-5.39-4.15-7.18-7.51-1.79-3.36-2.69-7.49-2.69-12.39s.91-8.92,2.74-12.28c1.83-3.36,4.26-5.87,7.29-7.51,3.03-1.65,6.38-2.47,10.03-2.47s6.91.82,9.98,2.47c3.07,1.64,5.55,4.15,7.46,7.51,1.9,3.36,2.85,7.46,2.85,12.28s-.97,8.92-2.91,12.28Z" style="fill:#ff512c;"/><path d="M149.1,23.79c-4.39-2.48-9.43-3.73-15.13-3.73s-11.02,1.26-15.51,3.78c-4.5,2.52-7.99,6.12-10.47,10.8-2.49,4.68-3.73,10.12-3.73,16.34s1.28,11.68,3.84,16.39c2.56,4.72,6.08,8.35,10.58,10.91,4.5,2.56,9.59,3.84,15.29,3.84,7.16,0,13.16-1.81,17.98-5.43,4.82-3.62,8.04-8.31,9.65-14.09h-10.74c-1.17,3.36-3.2,6.05-6.08,8.06-2.89,2.01-6.49,3.01-10.8,3.01-5.26,0-9.74-1.66-13.43-4.99-3.69-3.33-5.72-7.95-6.08-13.87h48.02c.22-2.12.33-4.13.33-6.03,0-5.48-1.19-10.4-3.56-14.75-2.38-4.35-5.76-7.76-10.14-10.25ZM114.57,46.71c.51-5.7,2.54-10.16,6.08-13.38,3.54-3.22,7.84-4.82,12.88-4.82,3.51,0,6.71.71,9.59,2.14,2.89,1.43,5.17,3.51,6.85,6.25,1.68,2.74,2.52,6.01,2.52,9.81h-37.93Z" style="fill:#ff512c;"/><path d="M379.35,68.6c-1.39-1.43-3.08-2.14-5.06-2.14s-3.81.71-5.24,2.14c-1.43,1.43-2.14,3.18-2.14,5.24s.71,3.81,2.14,5.24c1.43,1.43,3.18,2.14,5.24,2.14s3.67-.71,5.06-2.14c1.39-1.43,2.08-3.18,2.08-5.24s-.7-3.81-2.08-5.24Z" style="fill:#ff512c;"/><path d="M30.83,71.33c-11.57,0-20.94-9.38-20.94-20.94h0v-20.44h20.95v-9.88H9.89V0H0v50.39c0,17.03,13.81,30.83,30.83,30.83h5.24v-9.88h-5.24Z" style="fill:#ff512c;"/><path d="M72.52,20.73c-6.34,0-12.15,2.26-16.69,6.02V4.29h-9.58v76.94h9.58v-35.99c.97-8.96,8.07-15.26,16.69-15.26,9.24,0,16.73,7.23,16.81,17.21h0v34.04h9.58v-34.18h0c-.08-14.54-11.93-26.31-26.4-26.31Z" style="fill:#ff512c;"/></svg>