<svg xmlns="http://www.w3.org/2000/svg" viewBox="0 0 111 24" fill="none">
    <g clip-path="url(#clip0_1616_2109)">
      <path d="M62.3968 6.97029C61.0552 6.2338 59.5566 5.86556 57.8979 5.86556C56.2392 5.86556 54.7405 6.2338 53.399 6.97029C52.0574 7.70677 51.0011 8.76473 50.2241 10.1413C49.4471 11.5178 49.0601 13.1047 49.0601 14.8992C49.0601 16.6936 49.4384 18.3127 50.1921 19.6892C50.9458 21.0687 51.9905 22.1296 53.3175 22.8777C54.6474 23.6259 56.1286 24 57.7669 24C59.4053 24 60.9359 23.6259 62.2978 22.8777C63.6597 22.1296 64.7393 21.0687 65.5367 19.6892C66.334 18.3127 66.7327 16.7141 66.7327 14.8992C66.7327 13.0843 66.3457 11.4915 65.5687 10.1237C64.7917 8.75597 63.7354 7.70385 62.3939 6.96736L62.3968 6.97029ZM62.9235 18.4881C62.3589 19.47 61.6198 20.2094 60.706 20.7004C59.7923 21.1914 58.8116 21.4369 57.7698 21.4369C56.728 21.4369 55.7706 21.1973 54.8976 20.715C54.0246 20.2358 53.3291 19.5022 52.8082 18.5202C52.2873 17.5382 52.0254 16.3312 52.0254 14.8992C52.0254 13.4671 52.2902 12.2923 52.8228 11.3103C53.3553 10.3283 54.0624 9.59474 54.9442 9.11544C55.8259 8.63614 56.8008 8.39357 57.8629 8.39357C58.9251 8.39357 59.8738 8.63322 60.7672 9.11544C61.6605 9.59474 62.3822 10.3283 62.938 11.3103C63.4909 12.2923 63.7674 13.4905 63.7674 14.8992C63.7674 16.3078 63.4851 17.5061 62.9235 18.4881Z" fill="currentColor"></path>
      <path d="M101.193 6.97029C99.8517 6.2338 98.353 5.86556 96.6943 5.86556C95.0356 5.86556 93.5369 6.2338 92.1954 6.97029C90.8539 7.70677 89.7976 8.76473 89.0206 10.1413C88.2436 11.5178 87.8566 13.1047 87.8566 14.8992C87.8566 16.6936 88.2349 18.3127 88.9886 19.6892C89.7423 21.0687 90.787 22.1296 92.1139 22.8777C93.4438 23.6259 94.925 24 96.5634 24C98.2017 24 99.7324 23.6259 101.094 22.8777C102.456 22.1296 103.536 21.0687 104.333 19.6892C105.13 18.3127 105.529 16.7141 105.529 14.8992C105.529 13.0843 105.142 11.4915 104.365 10.1237C103.588 8.75597 102.532 7.70385 101.19 6.96736L101.193 6.97029ZM101.72 18.4881C101.155 19.47 100.416 20.2094 99.5025 20.7004C98.5887 21.1914 97.6081 21.4369 96.5663 21.4369C95.5245 21.4369 94.5671 21.1973 93.6941 20.715C92.8211 20.2358 92.1256 19.5022 91.6047 18.5202C91.0838 17.5382 90.8219 16.3312 90.8219 14.8992C90.8219 13.4671 91.0867 12.2923 91.6192 11.3103C92.1518 10.3283 92.8589 9.59474 93.7406 9.11544C94.6224 8.63614 95.5972 8.39357 96.6594 8.39357C97.7215 8.39357 98.6702 8.63322 99.5636 9.11544C100.457 9.59474 101.179 10.3283 101.734 11.3103C102.287 12.2923 102.564 13.4905 102.564 14.8992C102.564 16.3078 102.282 17.5061 101.717 18.4881H101.72Z" fill="currentColor"></path>
      <path d="M83.2005 7.92888C82.7728 7.55772 82.3042 7.23332 81.7979 6.95275C80.4564 6.21627 78.9577 5.84803 77.299 5.84803C75.6403 5.84803 74.1416 6.21627 72.8001 6.95275C71.4586 7.68924 70.4022 8.7472 69.6253 10.1237C68.8483 11.5002 68.4613 13.0872 68.4613 14.8816C68.4613 16.6761 68.8396 18.2952 69.5932 19.6717C70.3469 21.0482 71.3916 22.112 72.7186 22.8602C74.0485 23.6084 75.5326 23.9825 77.168 23.9825C78.8035 23.9825 80.3371 23.6084 81.699 22.8602C83.0608 22.112 84.1405 21.0511 84.9378 19.6717C85.7352 18.2952 86.1338 16.6965 86.1338 14.8816C86.1338 14.8203 86.1309 14.7618 86.128 14.7004L86.1338 14.6946V0H83.1976V7.92888H83.2005ZM82.3217 18.4735C81.7572 19.4554 81.018 20.1948 80.1043 20.6858C79.1905 21.1768 78.2098 21.4223 77.168 21.4223C76.1263 21.4223 75.1689 21.1827 74.2959 20.7004C73.4228 20.2211 72.7273 19.4876 72.2065 18.5056C71.6856 17.5236 71.4237 16.3166 71.4237 14.8846C71.4237 13.4525 71.6885 12.2776 72.221 11.2957C72.7535 10.3137 73.4607 9.58013 74.3424 9.10083C75.2241 8.61861 76.199 8.37896 77.2612 8.37896C78.3233 8.37896 79.272 8.61861 80.1654 9.10083C81.0587 9.58013 81.7804 10.3137 82.3363 11.2957C82.8892 12.2776 83.1656 13.4759 83.1656 14.8846C83.1656 16.2932 82.8833 17.4915 82.3188 18.4735H82.3217Z" fill="currentColor"></path>
      <path d="M43.3885 6.95275C42.111 6.22796 40.6443 5.86264 38.9856 5.86264C37.3269 5.86264 35.7788 6.23088 34.4722 6.96736C33.1627 7.70385 32.147 8.75597 31.4254 10.1237C30.7008 11.4915 30.3399 13.0813 30.3399 14.8992C30.3399 16.717 30.7124 18.3127 31.4574 19.6892C32.2023 21.0687 33.2267 22.1296 34.5362 22.8777C35.8457 23.6259 37.3269 24 38.9856 24C41.0692 24 42.8152 23.471 44.2178 22.4131C45.6205 21.3551 46.5575 19.9844 47.026 18.2952H43.9006C43.5602 19.2772 42.9694 20.0633 42.1313 20.6508C41.2903 21.2382 40.2427 21.5304 38.9885 21.5304C37.4578 21.5304 36.1542 21.0453 35.0804 20.0721C34.0066 19.0989 33.4158 17.7487 33.3111 16.0185H47.285C47.349 15.3989 47.381 14.8115 47.381 14.2562C47.381 12.6546 47.0347 11.2168 46.3451 9.94545C45.6525 8.67414 44.6689 7.67755 43.3943 6.94983L43.3885 6.95275ZM33.3402 13.6512C33.4886 11.9854 34.0793 10.6819 35.1095 9.74087C36.1396 8.7998 37.3909 8.3322 38.8576 8.3322C39.879 8.3322 40.8102 8.5397 41.6483 8.95762C42.4893 9.37555 43.1528 9.98344 43.6417 10.7842C44.1305 11.585 44.375 12.5407 44.375 13.6512H33.3372H33.3402Z" fill="currentColor"></path>
      <path d="M110.392 20.0487C109.987 19.6308 109.496 19.4233 108.919 19.4233C108.343 19.4233 107.811 19.6308 107.394 20.0487C106.978 20.4666 106.772 20.9781 106.772 21.5801C106.772 22.1822 106.978 22.6936 107.394 23.1115C107.811 23.5295 108.32 23.737 108.919 23.737C109.519 23.737 109.987 23.5295 110.392 23.1115C110.796 22.6936 110.997 22.1822 110.997 21.5801C110.997 20.9781 110.793 20.4666 110.392 20.0487Z" fill="currentColor"></path>
      <path d="M8.97161 20.8466C5.60471 20.8466 2.87802 18.1052 2.87802 14.7267V8.75304H8.97452V5.86556H2.87802V0H0V14.7267C0 19.7038 4.01874 23.737 8.97161 23.737H10.4965V20.8495H8.97161V20.8466Z" fill="currentColor"></path>
      <path d="M21.1035 6.05845C19.2585 6.05845 17.5678 6.71895 16.2467 7.81783V1.25377H13.4589V23.7399H16.2467V13.2216C16.5289 10.603 18.5951 8.76181 21.1035 8.76181C23.7924 8.76181 25.972 10.8748 25.9953 13.7915V23.7399H28.7831V13.7506C28.7598 9.50122 25.3114 6.06137 21.1006 6.06137L21.1035 6.05845Z" fill="currentColor"></path>
    </g>
    <defs>
      <clipPath id="clip0_1616_2109">
        <rect width="111" height="24" fill="white"></rect>
      </clipPath>
    </defs>
  </svg>